<?xml version="1.0" encoding="utf-8"?>
<!-- Generator: Adobe Illustrator 26.0.2, SVG Export Plug-In . SVG Version: 6.00 Build 0)  -->
<svg version="1.1" id="Lager_1" xmlns="http://www.w3.org/2000/svg" xmlns:xlink="http://www.w3.org/1999/xlink" x="0px" y="0px"
	 viewBox="0 0 568.35 553.45" style="enable-background:new 0 0 568.35 553.45;" xml:space="preserve">
<style type="text/css">
	.st0{fill:#864F36;}
	.st1{fill:#C49056;}
	.st2{fill:#FAEAE2;}
	.st3{fill:#C7C8CA;}
	.st4{fill:#C05D70;}
</style>
<polygon class="st0" points="138.7,419.98 170.85,395.25 290.81,454.61 414.48,410.09 457.77,422.45 319.26,491.71 290.36,459.76 
	268.2,495.29 "/>
<path class="st1" d="M160.59,104.2c-7.7-6.26-22.85,1.58-32.07,5.26c-31.25,12.45-53.78,41.45-65.06,73.14s-12.58,66.04-11.37,99.65
	c1.11,30.91,3.4,78.16,19.68,104.46s66.34,28.86,96.1,20.41c-21.7-6.55-24.96-13.75-25.77-22.11"/>
<path class="st1" d="M135.02,374.33c79.59-0.83,156.75,25.91,235.8,35.2c41.04,4.82,82.64,4.91,123.7,0.26
	c10.57-1.2,24.48-7.38,21.61-17.63l1.58-1.58c-10.07,7.27-26.82,7.14-32.61-3.84c-2.44-4.63-2.43-10.12-2.34-15.36
	c0.95-54.41,4.94-108.77,11.95-162.74"/>
<path class="st2" d="M124.58,198.68c-2.94,91.65-6.51,142.29,9.76,168.82c16.27,26.53,107.39,91.64,156.21,96.47
	s165.97-65.12,172.48-89.23c6.51-24.12,19.53-149.53,13.02-183.29s5.55-88.18-107.39-101.29c-54.39-6.31-95.98-17.42-149.34-11.11
	C193.4,82.11,127.83,97.39,124.58,198.68z"/>
<g>
	<path class="st3" d="M116.96,235.17c-1.74,21.47-2.94,43.62,2.95,64.6c2.73,9.72,6.85,20.47,14.54,27.38
		c7.78,7,18.08,9.49,28.17,10.96c11.88,1.73,23.84,2.33,35.84,2.41c11.12,0.07,22.54,0.46,33.6-0.94
		c10.25-1.31,19.59-4.98,27.16-12.15c6.6-6.26,11.21-14.44,14.07-23.01c7.87-23.58,0.22-48.47-7.19-71.1
		c-2.47-7.53-14.41-4.31-11.92,3.29c5.91,18.05,12.93,37.99,9.12,57.22c-2.96,14.95-11.93,28.88-27.47,32.61
		c-9.71,2.33-20.22,1.66-30.13,1.72c-10.83,0.06-21.69-0.09-32.48-1.12c-8.63-0.82-18.39-1.71-26.12-5.97
		c-7.81-4.3-11.52-12.84-14.17-20.96c-6.82-20.9-5.35-43.35-3.61-64.93c0.27-3.33-3.04-6.18-6.18-6.18
		C119.57,228.98,117.23,231.82,116.96,235.17L116.96,235.17z"/>
</g>
<g>
	<path class="st3" d="M328.95,225.1c-3.07,11.52-5.18,23.27-6.36,35.14c-1.06,10.59-1.7,21.46,0.21,31.99
		c1.79,9.83,6.81,18.61,15.18,24.24c8.25,5.54,18.45,7.11,28.11,8.22c11.75,1.35,23.58,2.1,35.4,2.31
		c11.57,0.21,23.39,0.32,34.85-1.5c10.23-1.62,19.8-6,26.99-13.57c6.54-6.89,11.06-15.66,13.45-24.82
		c3.29-12.58,2.54-25.7,0.55-38.41c-1.39-8.87-3.5-28.42-16.81-26.64c-3.31,0.44-6.18,2.53-6.18,6.18c0,3,2.85,6.63,6.18,6.18
		c0.8-0.11,0.72,0.1,0.31-0.25c-0.18-0.15,0.47,0.64,0.59,0.84c0.83,1.32,1.22,2.82,1.58,4.33c1.15,4.93,2.08,9.96,2.75,14.98
		c1.28,9.43,1.6,19.32-0.67,28.62c-1.78,7.29-5.04,14.39-10.19,19.93c-5.75,6.19-13.06,9.3-21.32,10.64
		c-9.5,1.54-19.48,1.28-29.07,1.19c-10.67-0.11-21.33-0.67-31.95-1.68c-7.96-0.76-16.55-1.4-23.94-4.74
		c-7.17-3.25-11.45-8.96-13.31-16.53c-2.32-9.39-1.43-19.61-0.59-29.14c1.03-11.56,3.16-22.98,6.14-34.19
		C342.92,220.69,330.99,217.4,328.95,225.1L328.95,225.1z"/>
</g>
<g>
	<path class="st0" d="M259.77,212.03c-48.83,0.02-97.64,2.37-146.25,7.02c-6.42,0.61-12.69,5.25-12.37,12.37
		c0.28,6.17,5.47,13.03,12.37,12.37c48.61-4.65,97.42-6.99,146.25-7.02c6.47,0,12.67-5.69,12.37-12.37
		C271.84,217.7,266.7,212.03,259.77,212.03L259.77,212.03z"/>
</g>
<g>
	<path class="st0" d="M314.36,235.92c42.57-1.11,85.2,0.73,127.51,5.59c3.02,0.35,6.04,0.71,9.06,1.09
		c1.41,0.18,2.82,0.36,4.22,0.54c0.6,0.08,1.21,0.16,1.81,0.24c0.9,0.12,0.8,0.11-0.27-0.04c0.4,0.05,0.8,0.11,1.21,0.16
		c6.03,0.83,12.04,1.71,18.05,2.65c6.36,1,13.61-1.62,15.21-8.64c1.35-5.92-1.8-14.14-8.64-15.21
		c-43.37-6.79-87.16-10.71-131.06-11.34c-12.37-0.18-24.74-0.09-37.1,0.23c-6.46,0.17-12.67,5.57-12.37,12.37
		C302.29,230.11,307.44,236.1,314.36,235.92L314.36,235.92z"/>
</g>
<g>
	<path class="st0" d="M167.87,270.32c7.96,0,7.97-12.37,0-12.37C159.92,257.96,159.9,270.32,167.87,270.32L167.87,270.32z"/>
</g>
<g>
	<path class="st0" d="M365.32,268.62c7.96,0,7.97-12.37,0-12.37C357.36,256.25,357.35,268.62,365.32,268.62L365.32,268.62z"/>
</g>
<path class="st1" d="M160.59,104.2c18.72-13.77,47.5-8.15,60.42,11.79c6.52,10.06,9.04,22.39,13.77,33.53
	c7.44,17.52,20.65,32.18,36.77,40.8c16.16,8.64,34.51,11.16,52.49,13.24c61.83,7.18,124.03,10.85,186.23,10.98
	c-5.04-8.71-15.76-11.57-22.33-19.03c-15.36-17.45-0.56-45.94-4.29-69.53c-2.44-15.45-13.21-28.3-25.95-36.1
	s-27.39-11.25-41.85-14.05C353.53,63.78,289.92,61.92,226.6,60.09c-15.08-0.44-30.76-0.76-44.54,5.78S157,87.94,159.78,103.75"/>
<g>
	<path class="st4" d="M324.59,387.2c16.98,2.97,34.78-0.51,48.97-10.47c2.73-1.92,4-5.41,2.22-8.46c-1.58-2.7-5.71-4.15-8.46-2.22
		c-6.11,4.29-12.09,6.98-19.29,8.63c-6.33,1.45-13.89,1.69-20.15,0.6c-3.29-0.58-6.66,0.88-7.61,4.32
		C319.45,382.58,321.28,386.62,324.59,387.2L324.59,387.2z"/>
</g>
<circle class="st3" cx="291.32" cy="486.51" r="9.81"/>
</svg>
